<svg width="745" height="799" viewBox="0 0 745 799" fill="none" xmlns="http://www.w3.org/2000/svg">
<g id="front-page-img">
<g id="Group 1">
<path id="Subtract" fill-rule="evenodd" clip-rule="evenodd" d="M628.746 591.536C769.906 400.174 775.261 158.995 640.707 52.8491C539.855 -26.7103 389.029 -7.82901 260.361 87.1987L194.895 88.0089C190.163 88.0675 186.374 91.9509 186.433 96.6827C186.491 101.414 190.375 105.203 195.107 105.144L238.071 104.613C233.709 108.212 229.379 111.901 225.084 115.679L150.041 116.608C145.31 116.667 141.521 120.55 141.58 125.282C141.638 130.014 145.522 133.802 150.254 133.743L206.236 133.051C183.313 155.173 161.564 179.922 141.482 207.146C32.4768 354.918 4.45337 532.396 59.3018 654.462L150.551 653.332C155.283 653.274 159.166 657.062 159.225 661.794C159.284 666.526 155.495 670.409 150.763 670.468L67.6918 671.496C70.5331 676.777 73.5445 681.935 76.7262 686.964L16.9679 687.704C12.2361 687.762 8.44771 691.646 8.50627 696.377C8.56483 701.109 12.4482 704.898 17.18 704.839L88.5081 703.956C100.319 719.525 113.988 733.579 129.521 745.833C228.771 824.128 376.419 807.086 503.718 715.955L561.491 715.24C566.223 715.182 570.012 711.298 569.953 706.567C569.894 701.835 566.011 698.046 561.279 698.105L526.675 698.533C563.421 669.02 598.033 633.172 628.746 591.536Z" fill="url(#paint0_linear)"/>
<g id="undraw_noted_pc9f 1" clip-path="url(#clip0)">
<path id="Vector" d="M523.369 289.969C538.965 311.797 535.927 340.363 535.927 340.363C535.927 340.363 507.604 333.537 492.009 311.708C476.414 289.879 479.452 261.313 479.452 261.313C479.452 261.313 507.774 268.14 523.369 289.969Z" fill="#2F2E41"/>
<path id="Vector_2" d="M512.396 294.309C514.519 320.923 535.352 341.011 535.352 341.011C535.352 341.011 552.744 317.951 550.621 291.338C548.498 264.725 527.665 244.636 527.665 244.636C527.665 244.636 510.274 267.696 512.396 294.309Z" fill="#6A57BF"/>
<path id="Vector_3" d="M335.518 219.253L544.827 319.691C546.567 320.526 548.018 321.848 548.999 323.492C549.979 325.136 550.445 327.029 550.338 328.933L540.434 505.413C540.39 506.205 540.147 506.973 539.727 507.65C539.308 508.327 538.725 508.891 538.031 509.292C537.336 509.693 536.552 509.918 535.747 509.948C534.943 509.977 534.144 509.811 533.421 509.462L319.319 405.144L327.998 223.645C328.039 222.793 328.294 221.963 328.741 221.232C329.187 220.5 329.811 219.889 330.557 219.454C331.302 219.018 332.146 218.772 333.012 218.737C333.878 218.702 334.739 218.879 335.518 219.253Z" fill="#D0CDE1"/>
<path id="Vector_4" d="M337.956 222.817L542.125 320.787C543.822 321.602 545.238 322.892 546.194 324.495C547.15 326.099 547.605 327.945 547.501 329.803L537.84 501.948C537.796 502.72 537.559 503.47 537.15 504.13C536.741 504.79 536.173 505.34 535.495 505.732C534.818 506.123 534.053 506.342 533.268 506.371C532.483 506.4 531.704 506.237 530.999 505.897L322.156 404.142L330.622 227.101C330.662 226.269 330.91 225.46 331.346 224.747C331.782 224.033 332.39 223.437 333.118 223.012C333.845 222.588 334.668 222.347 335.512 222.313C336.357 222.279 337.197 222.452 337.956 222.817Z" fill="#3F3D56"/>
<path id="Vector_5" d="M347.015 236.053L532.087 324.86C533.626 325.599 534.909 326.768 535.776 328.222C536.643 329.675 537.055 331.349 536.96 333.032L528.203 489.078C528.164 489.777 527.949 490.457 527.578 491.055C527.207 491.654 526.692 492.153 526.078 492.507C525.464 492.862 524.77 493.061 524.059 493.087C523.348 493.113 522.641 492.965 522.002 492.657L332.692 400.419L340.366 239.937C340.402 239.183 340.628 238.449 341.023 237.803C341.418 237.156 341.969 236.615 342.628 236.23C343.288 235.845 344.034 235.628 344.799 235.597C345.565 235.566 346.326 235.722 347.015 236.053Z" fill="white"/>
<path id="Vector_6" d="M160.373 493.89L369.952 594.631C371.902 595.567 374.049 596.039 376.219 596.009C378.388 595.98 380.521 595.449 382.445 594.46L535.586 515.511C537.371 513.709 537.086 511.075 536.484 509.102C536.191 508.147 535.798 507.225 535.31 506.35L514.177 495.733L336.553 411.16L325.937 405.776C323.126 404.354 320.007 403.625 316.847 403.651C313.687 403.678 310.581 404.459 307.794 405.928L160.183 483.767C159.244 484.26 158.461 484.999 157.922 485.903C157.383 486.806 157.108 487.839 157.127 488.887C157.147 489.935 157.461 490.957 158.034 491.84C158.607 492.723 159.416 493.432 160.373 493.89Z" fill="#D0CDE1"/>
<path id="Vector_7" opacity="0.1" d="M160.373 493.89L369.952 594.631C371.902 595.567 374.049 596.039 376.219 596.009C378.388 595.98 380.521 595.449 382.445 594.46L535.586 515.511C537.371 513.709 537.086 511.075 536.484 509.102L383.823 589.653C381.96 590.636 379.888 591.171 377.775 591.215C375.663 591.259 373.57 590.81 371.667 589.906L157.19 487.941C157.004 489.137 157.213 490.361 157.786 491.432C158.359 492.503 159.266 493.365 160.373 493.89Z" fill="black"/>
<path id="Vector_8" opacity="0.1" d="M358.466 522.4L290.593 489.66C289.226 489.001 287.719 488.676 286.197 488.712C284.676 488.748 283.185 489.144 281.852 489.866L242.974 510.942C242.525 511.185 242.152 511.545 241.896 511.983C241.641 512.421 241.512 512.92 241.524 513.424C241.537 513.929 241.69 514.421 241.966 514.846C242.243 515.271 242.633 515.613 243.093 515.834L312.297 549.144C313.446 549.697 314.715 549.963 315.994 549.918C317.272 549.873 318.52 549.519 319.627 548.887L358.646 526.6C359.026 526.383 359.339 526.067 359.55 525.688C359.762 525.308 359.864 524.879 359.845 524.446C359.827 524.013 359.689 523.594 359.446 523.233C359.203 522.873 358.864 522.584 358.466 522.4Z" fill="black"/>
<path id="Vector_9" opacity="0.1" d="M517.271 514.818L445.15 553.698C444.32 554.146 443.394 554.39 442.448 554.411C441.502 554.432 440.565 554.229 439.716 553.82L233.35 454.204C232.769 453.923 232.278 453.488 231.934 452.949C231.589 452.409 231.404 451.785 231.398 451.147C231.393 450.509 231.569 449.882 231.905 449.337C232.241 448.792 232.724 448.349 233.301 448.059L303.761 412.626C304.823 412.092 305.996 411.808 307.188 411.798C308.38 411.787 309.558 412.05 310.629 412.565L517.203 511.908C517.478 512.04 517.71 512.243 517.874 512.496C518.039 512.749 518.129 513.042 518.136 513.342C518.143 513.643 518.066 513.939 517.914 514.2C517.761 514.46 517.539 514.674 517.271 514.818Z" fill="black"/>
<path id="Vector_10" d="M399.12 326.832L398.765 327.553L465.911 359.593L466.266 358.872L399.12 326.832Z" fill="#9490D4"/>
<path id="Vector_11" d="M399.233 336.471L398.872 337.188L466.045 369.995L466.407 369.277L399.233 336.471Z" fill="#9490D4"/>
<path id="Vector_12" d="M411.681 354.734L411.32 355.452L449.806 374.227L450.167 373.508L411.681 354.734Z" fill="#9490D4"/>
<path id="Vector_13" d="M203.217 397.452C203.217 397.452 186.856 390.669 179.303 398.142C171.75 405.615 199.831 402.838 203.217 397.452Z" fill="#3F3D56"/>
<path id="Vector_14" d="M174.548 365.066C179.619 355.53 189.879 354.962 189.879 354.962C189.879 354.962 199.865 353.456 206.461 367.802C212.608 381.173 224.368 394.854 211.5 398.161L205.727 389.55L204.388 397.991C202.552 398.156 200.709 398.213 198.867 398.161C185.039 397.85 171.883 398.636 172.24 393.272C172.715 386.142 169.668 374.241 174.548 365.066Z" fill="#2F2E41"/>
<path id="Vector_15" d="M169.094 529.771C169.094 529.771 176.154 542.314 180.593 542.259C185.032 542.204 184.641 550.468 183.678 552.423C182.716 554.378 180.304 558.78 184.328 565.046C185.733 567.234 185.518 569.739 184.642 572.073C182.189 578.61 172.308 576.761 172.536 569.796C172.538 569.719 172.542 569.642 172.546 569.564C172.943 561.786 168.847 549.692 164.865 546.826C160.884 543.961 157.336 536.232 157.336 536.232L169.094 529.771Z" fill="#FFB8B8"/>
<path id="Vector_16" d="M216.403 526.27C216.403 526.27 209.654 538.985 205.216 539.04C200.777 539.094 201.373 547.346 202.383 549.276C203.393 551.207 205.913 555.548 202.046 561.912C200.695 564.134 200.973 566.633 201.906 568.944C204.52 575.419 214.353 573.326 213.952 566.368C213.948 566.291 213.942 566.214 213.937 566.137C213.347 558.371 217.142 546.179 221.052 543.216C224.961 540.253 228.317 532.438 228.317 532.438L216.403 526.27Z" fill="#FFB8B8"/>
<path id="Vector_17" d="M212.63 464.664L215.667 470.942C215.667 470.942 259.241 484.491 255.5 501.054C251.759 517.618 232.844 543.6 229.873 542.665C226.901 541.73 211.084 539.011 210.488 530.76C209.893 522.508 221.549 507.79 221.549 507.79L205.094 493.42L181.405 493.227L161 507.79C161 507.79 183.893 523.358 174.613 530.76C165.333 538.162 157.009 551.89 155 549C152.991 546.11 125.834 506.602 128.5 496C131.904 492.071 165.405 474.964 165.405 474.964L174.613 461.734L211.084 459.339L212.63 464.664Z" fill="#2F2E41"/>
<path id="Vector_18" d="M200.339 384.128C200.339 384.128 198.072 400.188 203.027 402.07C207.983 403.952 193.29 412.392 193.29 412.392L184.906 412.496L179.343 401.391C179.343 401.391 184.166 392.587 181.105 384.366C178.044 376.145 200.339 384.128 200.339 384.128Z" fill="#FFB8B8"/>
<path id="Vector_19" opacity="0.1" d="M200.339 384.128C200.339 384.128 198.072 400.188 203.027 402.07C207.983 403.952 193.29 412.392 193.29 412.392L184.906 412.496L179.343 401.391C179.343 401.391 184.166 392.587 181.105 384.366C178.044 376.145 200.339 384.128 200.339 384.128Z" fill="black"/>
<path id="Vector_20" d="M203.96 397.686C203.96 397.686 198.607 403.582 197.632 404.565C196.658 405.549 192.286 410.947 182.819 403.291C173.353 395.636 172.48 404.877 172.48 404.877L173.202 463.164C173.202 463.164 181.051 459.667 187.504 462.987C193.957 466.308 207.219 461.772 207.219 461.772L208.94 401.511L203.96 397.686Z" fill="#6A57BF"/>
<path id="Vector_21" d="M200.337 397.731C200.337 397.731 204.922 395.731 208.891 397.625C212.861 399.519 226.79 409.063 225.858 413.446C224.926 417.83 212.482 448.59 221.539 463.052C230.597 477.514 232.124 481.381 232.124 481.381L210.286 470.478C210.286 470.478 193.392 460.485 194.793 454.153C196.195 447.82 200.337 397.731 200.337 397.731Z" fill="#3F3D56"/>
<path id="Vector_22" d="M180.774 397.973C180.774 397.973 170.436 399.072 169.954 400.05C169.473 401.028 154.482 405.342 155.523 409.702C156.563 414.061 170.61 452.995 164.782 460.354C158.954 467.713 149.216 478.035 152.681 478.964C156.145 479.893 162.033 477.391 167.969 478.775C173.905 480.159 187.564 467.845 185.922 454.748C184.28 441.652 185.249 401.318 180.774 397.973Z" fill="#3F3D56"/>
<path id="Vector_23" d="M206.587 490.442L206.648 495.299C206.648 495.299 209.252 506.441 201.355 506.053C193.458 505.665 198.227 492.489 198.227 492.489L198.667 488.111L206.587 490.442Z" fill="#FFB8B8"/>
<path id="Vector_24" d="M184.4 491.202C184.4 491.202 189.964 502.307 184.551 503.346C179.138 504.384 175.102 497.147 175.078 495.204C175.054 493.261 184.4 491.202 184.4 491.202Z" fill="#FFB8B8"/>
<path id="Vector_25" d="M175.87 379.816C176.414 379.809 176.845 378.934 176.832 377.861C176.819 376.788 176.366 375.923 175.822 375.93C175.277 375.937 174.846 376.812 174.859 377.885C174.873 378.958 175.325 379.823 175.87 379.816Z" fill="#FFB8B8"/>
<path id="Vector_26" d="M204.967 379.456C205.512 379.449 205.943 378.574 205.929 377.501C205.916 376.428 205.464 375.563 204.919 375.57C204.374 375.577 203.943 376.452 203.957 377.525C203.97 378.598 204.422 379.463 204.967 379.456Z" fill="#FFB8B8"/>
<path id="Vector_27" d="M167.543 404.452C167.543 404.452 155.213 404.605 155.766 409.456C156.32 414.307 173.629 497.651 173.629 497.651C173.629 497.651 180.455 491.251 186.391 492.635L167.543 404.452Z" fill="#3F3D56"/>
<path id="Vector_28" d="M215.399 405.317C215.399 405.317 227.758 407.593 227.849 414.879C227.939 422.165 211.05 492.33 208.584 492.361C206.118 492.391 196.73 491.05 196.7 488.621C196.67 486.193 215.399 405.317 215.399 405.317Z" fill="#3F3D56"/>
<path id="Vector_29" opacity="0.2" d="M212.864 419.68L202.296 462.557C202.296 462.557 207.012 425.096 212.864 419.68Z" fill="black"/>
<path id="Vector_30" opacity="0.2" d="M169.628 414.209L181.542 469.95C181.542 469.95 177.304 417.337 169.628 414.209Z" fill="black"/>
<path id="Vector_31" d="M190.572 392.022C198.471 391.924 204.796 385.538 204.7 377.759C204.603 369.979 198.122 363.752 190.223 363.85C182.324 363.947 175.999 370.333 176.095 378.113C176.191 385.892 182.673 392.12 190.572 392.022Z" fill="#FFB8B8"/>
<path id="Vector_32" d="M177.112 363.768L187.734 358.121L202.524 360.194L205.743 373.442L198.136 373.249L195.952 368.394L196.011 373.195L192.501 373.105L190.369 365.359L189.199 373.647L176.723 373.551L177.112 363.768Z" fill="#2F2E41"/>
<path id="Vector_33" d="M336.404 280.006L330.68 293.887L380.755 318.995L396.921 270.472" fill="#F2F2F2"/>
<path id="Vector_34" d="M379.504 310.537L400.854 259.325L350.031 235.465L329.428 285.43L379.504 310.537Z" fill="#6A57BF"/>
<path id="Vector_35" d="M349.077 254.96L348.716 255.678L387.202 274.453L387.564 273.735L349.077 254.96Z" fill="white"/>
<path id="Vector_36" d="M346.294 261.773L345.933 262.491L384.419 281.266L384.78 280.548L346.294 261.773Z" fill="white"/>
</g>
</g>
<rect id="moving elipse 1" x="606" y="75" width="128" height="20" rx="10" fill="white"/>
</g>
<defs>
<linearGradient id="paint0_linear" x1="580.617" y1="27.5365" x2="133.081" y2="742.633" gradientUnits="userSpaceOnUse">
<stop stop-color="#FFB8B8"/>
<stop offset="1" stop-color="#432AB0"/>
</linearGradient>
<clipPath id="clip0">
<rect width="428.837" height="377.786" fill="white" transform="translate(121.013 221.353) rotate(-0.709094)"/>
</clipPath>
</defs>
</svg>
