<svg width="745" height="799" viewBox="0 0 745 799" fill="none" xmlns="http://www.w3.org/2000/svg">
<path fill-rule="evenodd" clip-rule="evenodd" d="M628.746 591.536C769.906 400.174 775.261 158.995 640.707 52.8491C539.855 -26.7103 389.029 -7.82901 260.361 87.1987L194.895 88.0089C190.163 88.0675 186.374 91.9509 186.433 96.6827C186.491 101.414 190.375 105.203 195.107 105.144L238.071 104.613C233.709 108.212 229.379 111.901 225.084 115.679L150.041 116.608C145.31 116.667 141.521 120.55 141.58 125.282C141.638 130.014 145.522 133.802 150.254 133.743L206.236 133.051C183.313 155.173 161.564 179.922 141.482 207.146C32.4768 354.918 4.45337 532.396 59.3018 654.462L150.551 653.332C155.283 653.274 159.166 657.062 159.225 661.794C159.284 666.526 155.495 670.409 150.763 670.468L67.6918 671.496C70.5331 676.777 73.5445 681.935 76.7262 686.964L16.9679 687.704C12.2361 687.762 8.44771 691.646 8.50627 696.377C8.56483 701.109 12.4482 704.898 17.18 704.839L88.5081 703.956C100.319 719.525 113.988 733.579 129.521 745.833C228.771 824.128 376.419 807.086 503.718 715.955L561.491 715.24C566.223 715.182 570.012 711.298 569.953 706.567C569.894 701.835 566.011 698.046 561.279 698.105L526.675 698.533C563.421 669.02 598.033 633.172 628.746 591.536Z" fill="url(#paint0_linear)"/>
<defs>
<linearGradient id="paint0_linear" x1="580.617" y1="27.5365" x2="133.081" y2="742.633" gradientUnits="userSpaceOnUse">
<stop stop-color="#FFB8B8"/>
<stop offset="1" stop-color="#432AB0"/>
</linearGradient>
</defs>
</svg>
